#!OML:ASF I:\Actors\actors\Patient Classification 1\Patient 1\Session 1\Subject1.ASF
:FULLY-SPECIFIED
:DEGREES
1045
root 0.839741 17.5575 8.62864 9.1773 1.33723 -8.19543
lowerback -3.1089 1.01165 5.72379
upperback -6.5222 1.47619 2.8879
thorax -4.97089 0.542726 -0.218046
lowerneck -5.99907 -3.19429 0.423307
upperneck 47.3057 -7.79407 5.27495
head 19.6927 -2.36634 1.24381
rclavicle 1.34801e-014 3.11595e-014
rhumerus 7.33689 59.1032 -95.8866
rradius 143.236
rwrist -48.5581
rhand -11.4711 -74.2954
rfingers 7.12502
rthumb 14.5667 103.764
lclavicle 1.34801e-014 3.11595e-014
lhumerus -59.2661 -64.7051 140.82
lradius 90.5181
lwrist 78.9633
lhand -20.6317 2.32487
lfingers 7.12502
lthumb 5.72997 32.2274
rfemur -4.39284 24.8212 24.6891
rtibia 3.65547
rfoot -13.178 -24.3729
rtoes 2.49274
lfemur 3.33022 -44.9344 -10.4084
ltibia -4.04388
lfoot -19.1898 50.1833
ltoes 5.55319
1046
root 0.838434 17.5622 8.63229 9.21724 1.43086 -8.37808
lowerback -3.13972 0.828666 5.78313
upperback -6.61117 1.2425 3.0976
thorax -5.06357 0.42609 -0.0298214
lowerneck -6.2175 -3.00286 0.116326
upperneck 46.9158 -7.40061 5.31336
head 19.4682 -2.26751 1.36811
rclavicle -1.63997e-015 -4.57205e-015
rhumerus 7.63429 59.4398 -95.6506
rradius 143.201
rwrist -48.6756
rhand -11.5808 -74.0252
rfingers 7.12502
rthumb 14.461 103.501
lclavicle -1.63997e-015 -4.57205e-015
lhumerus -58.3537 -64.3734 140.008
lradius 90.5538
lwrist 78.3284
lhand -20.7803 2.43263
lfingers 7.12502
lthumb 5.58648 32.339
rfemur -4.52194 24.8945 24.8999
rtibia 3.84982
rfoot -13.3292 -24.4807
rtoes 2.87685
lfemur 2.94762 -44.1829 -9.84534
ltibia -4.04069
lfoot -18.3999 49.5522
ltoes 4.78639
1047
root 0.837769 17.5633 8.636 9.17216 1.48558 -8.46743
lowerback -3.14472 0.805072 5.88548
upperback -6.63475 1.2107 3.06249
thorax -5.08556 0.40339 -0.122517
lowerneck -6.38504 -3.01827 0.0754243
upperneck 46.4989 -7.3822 5.32038
head 19.2246 -2.2745 1.36436
rclavicle -2.24192e-014 -3.18055e-014
rhumerus 7.88648 59.3406 -95.4582
rradius 143.167
rwrist -48.5704
rhand -11.5341 -73.7869
rfingers 7.12502
rthumb 14.5059 103.26
lclavicle -2.24192e-014 -3.18055e-014
lhumerus -58.4002 -64.4027 140.032
lradius 90.621
lwrist 77.9464
lhand -21.0056 2.454
lfingers 7.12502
lthumb 5.36896 32.366
rfemur -4.55355 24.8543 25.0379
rtibia 4.04806
rfoot -13.4269 -24.4785
rtoes 2.99604
lfemur 2.7907 -43.6511 -9.60027
ltibia -3.97799
lfoot -18.0099 49.0638
ltoes 4.40851
1048
root 0.838323 17.561 8.6376 9.02692 1.54308 -8.47259
lowerback -3.05951 0.84854 5.99574
upperback -6.58011 1.26662 2.89826
thorax -5.06811 0.42221 -0.356279
lowerneck -6.48717 -3.13979 0.220996
upperneck 46.1462 -7.55598 5.26929
head 19.0105 -2.33251 1.26937
rclavicle 1.53375e-014 8.19987e-015
rhumerus 8.2376 58.8683 -95.1407
rradius 143.134
rwrist -48.7343
rhand -11.4595 -73.7083
rfingers 7.12502
rthumb 14.5778 103.176
lclavicle 1.53375e-014 8.19987e-015
lhumerus -58.8281 -64.5653 140.423
lradius 90.6748
lwrist 77.7545
lhand -21.1401 2.43465
lfingers 7.12502
lthumb 5.23911 32.3499
rfemur -4.47388 24.6986 25.1179
rtibia 4.2279
rfoot -13.4788 -24.4041
rtoes 2.80857
lfemur 2.81864 -43.2382 -9.62237
ltibia -3.87107
lfoot -17.6722 48.6335
ltoes 4.03931
1049
root 0.83915 17.556 8.6353 8.76168 1.592 -8.47871
lowerback -2.85573 0.878845 6.11605
upperback -6.43509 1.31064 2.75088
thorax -5.0224 0.437124 -0.579802
lowerneck -6.56568 -3.26834 0.241074
upperneck 45.9454 -7.77148 5.32255
head 18.9137 -2.41365 1.24717
rclavicle -4.30182e-016 -4.62555e-014
rhumerus 9.63078 58.7022 -93.5789
rradius 143.281
rwrist -49.1233
rhand -11.7689 -73.5347
rfingers 7.12502
rthumb 14.2797 103.024
lclavicle -4.30182e-016 -4.62555e-014
lhumerus -59.122 -64.619 140.733
lradius 90.6413
lwrist 77.7535
lhand -20.7789 2.39907
lfingers 7.12502
lthumb 5.58786 32.3054
rfemur -4.27121 24.4809 25.2454
rtibia 4.40102
rfoot -13.487 -24.2879
rtoes 2.49619
lfemur 3.01887 -42.7682 -9.76352
ltibia -3.78243
lfoot -17.2543 48.1439
ltoes 3.52594
1050
root 0.83775 17.5497 8.63199 8.4123 1.57742 -8.52326
lowerback -2.59358 0.782991 6.10567
upperback -6.18164 1.19203 2.80791
thorax -4.90974 0.386205 -0.51724
lowerneck -6.67458 -3.29984 0.0688242
upperneck 45.8605 -7.72194 5.19494
head 18.8793 -2.44267 1.21849
rclavicle -1.36637e-014 -2.23509e-014
rhumerus 8.27386 58.3743 -95.1566
rradius 143.142
rwrist -48.5494
rhand -11.2032 -73.5539
rfingers 7.12502
rthumb 14.8247 103.004
lclavicle -1.36637e-014 -2.23509e-014
lhumerus -58.5028 -64.3017 140.249
lradius 90.5077
lwrist 77.7927
lhand -20.1129 2.26634
lfingers 7.12502
lthumb 6.23084 32.1547
rfemur -3.96111 24.2953 25.4562
rtibia 4.56488
rfoot -13.4944 -24.1367
rtoes 2.45518
lfemur 3.42857 -42.3046 -9.9724
ltibia -3.79055
lfoot -16.8116 47.7213
ltoes 2.93449
1051
root 0.835909 17.5425 8.63035 8.061 1.52466 -8.54351
lowerback -2.3705 0.747865 6.08495
upperback -5.90349 1.1468 2.79366
thorax -4.74352 0.372007 -0.523363
lowerneck -6.60373 -3.37309 0.0761163
upperneck 45.7889 -7.75391 5.01977
head 18.7967 -2.48266 1.12505
rclavicle 1.55689e-014 -5.1684e-015
rhumerus 7.89313 58.327 -95.4831
rradius 143.184
rwrist -48.0326
rhand -11.1017 -73.4231
rfingers 7.12502
rthumb 14.9225 102.866
lclavicle 1.55689e-014 -5.1684e-015
lhumerus -58.2851 -64.0537 140.075
lradius 90.432
lwrist 77.9787
lhand -19.6294 1.95927
lfingers 7.12502
lthumb 6.69757 31.8333
rfemur -3.6193 24.1637 25.6477
rtibia 4.7198
rfoot -13.5567 -23.9787
rtoes 2.51674
lfemur 3.92956 -41.9798 -10.2787
ltibia -3.81903
lfoot -16.5718 47.4494
ltoes 2.55531
1052
root 0.837264 17.5346 8.63014 7.7992 1.45307 -8.40547
lowerback -2.2803 0.808417 5.99687
upperback -5.63376 1.21293 2.63806
thorax -4.50262 0.414427 -0.638588
lowerneck -6.4093 -3.50729 0.160413
upperneck 45.7989 -7.95813 4.97392
head 18.7535 -2.56171 1.05752
rclavicle 3.05321e-015 2.00276e-014
rhumerus 7.52896 57.9869 -95.7976
rradius 143.171
rwrist -47.74
rhand -10.9818 -73.3444
rfingers 7.12502
rthumb 15.038 102.778
lclavicle 3.05321e-015 2.00276e-014
lhumerus -58.5384 -63.9751 140.301
lradius 90.3992
lwrist 78.5446
lhand -19.1771 1.38829
lfingers 7.12502
lthumb 7.13418 31.248
rfemur -3.39479 23.8933 25.5839
rtibia 4.87518
rfoot -13.5813 -23.696
rtoes 2.23327
lfemur 4.32286 -41.8202 -10.7564
ltibia -3.74332
lfoot -16.6559 47.2869
ltoes 2.52743
1053
root 0.838956 17.5267 8.62339 7.66251 1.24171 -8.11472
lowerback -2.21672 0.905962 5.70407
upperback -5.39863 1.32755 2.47635
thorax -4.28322 0.488301 -0.646135
lowerneck -6.22939 -3.63289 0.21666
upperneck 45.9867 -8.16839 4.94376
head 18.8368 -2.64019 1.0061
rclavicle -1.71296e-014 -1.15792e-014
rhumerus 7.29797 57.7079 -96.0465
rradius 143.105
rwrist -47.5616
rhand -10.8999 -73.4378
rfingers 7.12502
rthumb 15.117 102.866
lclavicle -1.71296e-014 -1.15792e-014
lhumerus -58.6548 -63.9148 140.396
lradius 90.3636
lwrist 79.2524
lhand -18.6808 0.676637
lfingers 7.12502
lthumb 7.61322 30.5196
rfemur -3.43175 23.7077 25.224
rtibia 5.11671
rfoot -13.5776 -23.3814
rtoes 2.0378
lfemur 4.53815 -41.7867 -11.303
ltibia -3.61915
lfoot -16.9897 47.3218
ltoes 2.92656
